<?xml version="1.0" encoding="UTF-8" standalone="no" ?>
<svg xmlns:dc="http://purl.org/dc/elements/1.1/" xmlns:cc="http://creativecommons.org/ns#" xmlns:rdf="http://www.w3.org/1999/02/22-rdf-syntax-ns#" xmlns:svg="http://www.w3.org/2000/svg" xmlns="http://www.w3.org/2000/svg" id="svg22" version="1.1" viewBox="0 0 640 512" role="img" class="svg-inline--fa fa-terminal fa-w-20" data-icon="terminal" data-prefix="fas" focusable="false" aria-hidden="true">
   <defs id="defs26" />
   <path id="path32" d="M 40.465678,473.267 C 35.078431,471.73838 31.866366,469.17123 18.17566,455.45233 3.4586217,440.705 1.9866265,438.68678 0.630995,431.39724 c -0.52248985,-2.80955 -0.52248985,-4.64376 0,-7.45331 1.5510754,-8.34048 -2.622813,-3.82243 82.152851,-88.92691 43.007234,-43.17405 78.194974,-78.73325 78.194974,-79.02045 0,-0.2872 -35.18793,-35.84486 -78.195401,-79.01702 C -1.9953608,91.876115 2.182374,96.398182 0.630995,88.056065 c -0.52248985,-2.809546 -0.52248985,-4.643761 0,-7.453307 1.3634143,-7.331387 2.7935846,-9.283057 17.8417,-24.347522 12.218717,-12.231992 14.413253,-14.166539 18.107581,-15.962353 3.887929,-1.889924 4.634735,-2.042596 9.938823,-2.031827 5.005014,0.01016 6.233392,0.233305 9.650313,1.753049 3.729896,1.658946 8.616532,6.435948 103.197758,100.882475 54.60536,54.52759 100.09166,100.29765 101.08066,101.71126 5.47126,7.82019 5.47126,18.96413 0,26.78432 -0.989,1.41361 -46.4753,47.18367 -101.08066,101.71126 -94.407574,94.27312 -99.470308,99.22276 -103.108136,100.80467 -4.559639,1.98276 -11.492438,2.57928 -15.793356,1.35891 z" style="fill:#ff80e5;stroke-width:0.60235292" />
   <path id="path34" d="M 39.160531,472.57622 C 34.815162,470.90552 31.060052,467.73037 18.177708,454.83404 6.9169556,443.56107 4.9082282,441.26513 3.1188847,437.62208 c -1.9344262,-3.93844 -2.0647671,-4.58485 -2.0647671,-10.24 0,-7.33365 0.5277793,-8.50914 7.3122148,-16.28606 2.5964016,-2.97622 36.7191806,-37.66731 75.8283996,-77.09131 39.109218,-39.424 72.421958,-73.10306 74.028298,-74.84236 L 161.14368,256 158.22452,252.83765 C 156.61898,251.09835 123.30666,217.41929 84.197141,177.99529 45.087625,138.57129 10.964179,103.8802 8.3672648,100.90398 1.5821221,93.127787 1.0541176,91.951944 1.0541176,84.617923 c 0,-5.64707 0.1325681,-6.307197 2.0564192,-10.24 C 4.9105425,70.698287 6.9008776,68.440668 19.07289,56.271969 35.51427,39.835064 36.805861,38.977999 45.628235,38.65056 54.828003,38.309114 55.525065,38.72508 71.656424,54.182688 79.206334,61.417264 124.7399,106.73634 172.84213,154.89176 272.37392,254.5336 263.68,244.85672 263.68,256 c 0,11.14113 8.61796,1.54254 -90.23559,100.50335 C 76.114065,453.9393 59.687176,470.014 55.592317,471.8287 c -3.574122,1.58392 -13.126127,2.01846 -16.431786,0.74752 z" style="fill:#ff80e5;stroke-width:0.60235292" />
   <path id="path36" d="M 39.160531,472.57622 C 34.807535,470.9026 31.053643,467.72366 18.209408,454.83404 1.9529407,438.52013 1.0624825,437.10992 1.0574737,427.67059 c -0.00283,-5.33093 0.2004109,-6.70329 1.2934807,-8.73412 3.0293401,-5.62825 1.1043739,-3.64791 118.1196356,-121.51761 22.27953,-22.44221 40.50823,-41.06696 40.50823,-41.38832 0,-0.32137 -31.79439,-32.64794 -70.654195,-71.83683 C 51.464813,145.00482 16.495765,109.57843 12.615626,105.4684 1.6868052,93.892076 0.38537969,91.364341 0.91347402,82.739523 1.4090706,74.645459 2.8098589,72.607073 19.107447,56.264191 36.086453,39.237998 36.702236,38.851288 46.832941,38.852665 c 5.678813,7.71e-4 6.981298,0.190885 9.112438,1.330068 4.149952,2.218321 23.246878,20.959341 115.661031,113.505467 72.09883,72.20177 88.95328,89.37685 90.35294,92.0718 1.60082,3.08223 1.72065,3.79533 1.72065,10.24 0,6.44488 -0.11978,7.15767 -1.72079,10.24 -1.39936,2.6941 -18.05185,19.66749 -89.14824,90.86615 C 75.713867,454.34293 59.712773,470.00264 55.583496,471.8326 c -3.565341,1.58004 -13.122001,2.01276 -16.422965,0.74362 z" style="fill:#ff80e5;stroke-width:0.60235292" />
   <path id="path38" d="M 39.275075,472.67102 C 35.413711,471.22034 31.312648,467.89874 21.297099,458.10996 4.1188527,441.32066 1.4668054,437.58541 0.90500626,429.38893 0.52497288,423.84436 1.3714748,420.0055 3.7300533,416.57743 6.6410827,412.34639 16.382303,402.33052 80.820152,337.31385 115.13425,302.69153 147.25696,270.23146 152.20396,265.18036 l 8.99455,-9.18382 -9.89808,-10.08246 C 145.85649,240.36873 113.87239,208.04574 80.224654,174.08522 3.4114862,96.558012 3.6436499,96.803012 1.6226997,91.137211 0.48918691,87.95937 0.54555124,80.765987 1.7313353,77.272815 3.3721807,72.439089 5.8275027,69.486325 19.662697,55.708596 36.266992,39.173269 36.779456,38.851765 46.531765,38.851765 c 5.992389,0 7.26257,0.179466 9.413614,1.330067 4.151157,2.22047 23.257485,20.970863 115.661031,113.506368 72.09883,72.20177 88.95328,89.37685 90.35294,92.0718 1.60082,3.08223 1.72065,3.79533 1.72065,10.24 0,6.44477 -0.1198,7.15772 -1.72072,10.24 -1.39951,2.69452 -18.15297,19.76874 -89.75059,91.46896 -97.015629,97.15467 -112.479924,112.28657 -116.63484,114.1279 -3.46565,1.53588 -13.116294,2.02979 -16.298775,0.83416 z" style="fill:#ff80e5;stroke-width:0.60235292" />
   <path id="path40" d="M 39.121613,472.61826 C 34.957404,471.06271 31.899415,468.48443 19.049857,455.69516 5.8354598,442.54275 2.5148997,438.39236 1.3120512,433.52453 0.37387662,429.72781 0.85895192,421.94892 2.2107276,419.11293 4.2042999,414.93047 11.185408,407.60818 63.647292,354.67383 92.498221,325.56307 126.22941,291.4561 138.60548,278.88057 l 22.50196,-22.8646 -20.6949,-21.0606 C 129.03035,223.37205 95.455696,189.41833 65.802204,159.50269 12.11238,105.33821 4.771139,97.645108 2.4017512,93.063529 0.86040305,90.083094 0.29944422,82.573413 1.3120512,78.475474 2.5258668,73.563261 5.8575486,69.426451 19.647913,55.708596 36.270183,39.173726 36.783658,38.851765 46.531765,38.851765 c 5.970641,0 7.266607,0.181719 9.386311,1.316139 4.22716,2.262285 21.942312,19.641771 114.483784,112.314536 73.10117,73.2049 90.15766,90.5818 91.55765,93.27756 1.60063,3.08214 1.72049,3.79553 1.72049,10.24 0,6.44467 -0.11983,7.15777 -1.72065,10.24 -1.39966,2.69495 -18.25411,19.87003 -90.35294,92.0718 -96.973248,97.11174 -111.85586,111.67217 -116.039351,113.52732 -3.547538,1.57315 -13.107419,2.02607 -16.445446,0.77914 z" style="fill:#ff80e5;stroke-width:0.60235292" />
   <path id="path42" d="M 39.121613,472.61826 C 34.954147,471.0615 31.89601,468.48119 19.064684,455.69516 5.8440234,442.52117 2.9527447,439.00499 1.5741829,434.42437 0.58444011,431.13571 0.51059188,424.65244 1.4253432,421.35748 2.9734522,415.78114 1.3200226,417.52486 89.244991,328.74267 128.20166,289.40619 160.16267,256.81272 160.26947,256.31273 160.47293,255.3602 146.07258,240.61986 60.060835,153.73817 32.550296,125.94939 8.2486097,100.97206 6.0570889,98.232995 1.6581488,92.734996 0.75294118,90.333024 0.75294118,84.15841 c 0,-4.822689 1.08033562,-8.47689 3.62169832,-12.25028 C 7.685735,66.991849 32.48591,42.696894 36.291765,40.641209 c 3.126178,-1.688567 3.703445,-1.789444 10.24,-1.789444 6.029417,0 7.255478,0.175519 9.461452,1.354473 4.193943,2.241398 21.113296,18.851224 114.984433,112.880902 72.42804,72.55037 90.09043,90.54519 91.25647,92.97404 1.26807,2.64137 1.44578,3.86365 1.44507,9.93882 -6.1e-4,6.08454 -0.17741,7.29337 -1.45268,9.93882 -1.1677,2.42231 -18.96911,20.56057 -90.95448,92.67556 C 74.108536,455.95284 59.796606,469.9577 55.567059,471.83684 c -3.546087,1.57549 -13.103966,2.02964 -16.445446,0.78142 z" style="fill:#ff80e5;stroke-width:0.60235292" />
   <path id="path44" d="M 38.185005,472.26629 C 33.984236,470.30539 28.897945,465.88374 17.26822,454.08276 5.7080633,442.35237 2.4590288,438.16625 1.3120512,433.52453 0.37387662,429.72781 0.85895192,421.94892 2.2107276,419.11293 4.1601131,415.02318 10.812647,407.99591 55.481698,362.84125 129.11071,288.4118 160.37647,256.57872 160.37647,256.04318 c 0,-0.59507 -36.18064,-37.47923 -102.203439,-104.19075 C 32.274551,125.68379 9.3276762,102.21364 7.1799766,99.696556 1.5278564,93.072306 1.0541176,91.883899 1.0541176,84.329412 c 0,-9.697778 0.480075,-10.447725 17.7538684,-27.73411 17.518821,-17.531592 17.849979,-17.743537 27.723779,-17.743537 5.576626,0 7.372693,0.221384 9.212946,1.135593 3.915794,1.945306 21.385619,19.089537 114.630669,112.494232 72.92244,73.0473 90.69271,91.15045 91.85882,93.57959 1.26776,2.64087 1.4458,3.8648 1.4458,9.93882 0,6.0741 -0.17803,7.29792 -1.44584,9.93882 -1.16605,2.42896 -18.88361,20.47951 -91.55765,93.27844 -96.940469,97.10707 -110.829884,110.69851 -115.109451,112.63995 -4.081493,1.85159 -13.801745,2.08035 -17.382054,0.40908 z" style="fill:#ff80e5;stroke-width:0.60235292" />
   <path id="path46" d="M 36.918686,471.57929 C 33.793638,470.00182 30.609927,467.23652 20.740948,457.52766 2.3014711,439.38735 0.30535421,436.20404 0.89417987,425.87692 1.060996,422.95121 1.5929125,419.92741 2.1185636,418.91663 4.0730753,415.15826 12.452995,406.32997 52.793151,365.53068 146.20507,271.05558 160.3618,256.49515 159.80552,255.4668 159.21583,254.37668 118.87499,213.27678 54.263068,147.93843 30.520932,123.92937 9.3359399,102.22333 7.185308,99.702802 1.5274506,93.07183 1.0541176,91.884992 1.0541176,84.329412 c 0,-9.789488 0.4511532,-10.495633 17.7192064,-27.73411 17.560434,-17.530356 17.89394,-17.743537 27.758441,-17.743537 5.562703,0 7.374582,0.222383 9.199209,1.129074 3.951865,1.963757 20.724414,18.420939 114.042126,111.897851 73.41882,73.54406 91.29497,91.753 92.46118,94.18249 1.26765,2.64081 1.44572,3.86495 1.44572,9.93882 0,6.07417 -0.17803,7.29788 -1.44588,9.93882 -1.16604,2.42885 -18.82843,20.42367 -91.25647,92.97404 -97.89939,98.06473 -111.133891,111.01936 -115.373242,112.93337 -2.013338,0.90899 -4.358194,1.30166 -8.771467,1.46884 -5.815596,0.2203 -6.157838,0.16039 -9.914255,-1.73578 z" style="fill:#ff80e5;stroke-width:0.60235292" />
   <path id="path48" d="m 36.930941,471.58541 c -3.077878,-1.5537 -6.298635,-4.3299 -15.602968,-13.44927 C 2.3380106,439.52367 0.29956674,436.30554 0.89417987,425.87692 1.060996,422.95121 1.5929125,419.92741 2.1185636,418.91663 4.04503,415.21219 12.158371,406.63902 49.74395,368.59204 116.03692,301.48527 154.3688,262.44875 157.19582,259.16493 c 2.58683,-3.00482 2.67472,-3.22636 1.79207,-4.51765 C 157.97946,253.17196 117.62236,212.06153 52.433557,146.10392 29.672954,123.07489 9.3011384,102.18254 7.1628553,99.676491 1.5291591,93.073833 1.0541176,91.880379 1.0541176,84.329412 c 0,-9.789488 0.4511532,-10.495633 17.7192064,-27.73411 17.560434,-17.530356 17.89394,-17.743537 27.758441,-17.743537 5.562703,0 7.374582,0.222383 9.199209,1.129074 3.945034,1.960362 20.673274,18.371751 113.752126,111.597541 62.19971,62.2979 91.2712,91.81563 92.46118,93.88044 1.64898,2.86125 1.73572,3.37301 1.73572,10.24 0,6.39194 -0.16728,7.5767 -1.4458,10.24 -1.16614,2.4292 -18.93441,20.52981 -91.85882,93.57694 -97.818457,97.98307 -110.514436,110.40845 -114.781588,112.33516 -2.001792,0.90386 -4.355867,1.29728 -8.760851,1.46415 -5.812167,0.22018 -6.159622,0.15948 -9.902,-1.72966 z" style="fill:#ff80e5;stroke-width:0.60235292" />
   <path id="path50" d="M 36.894118,471.59422 C 33.613276,469.95319 30.676382,467.33382 18.770134,455.42969 2.1184072,438.78093 1.1904971,437.40449 0.84806632,428.84446 0.5667075,421.8111 1.3298081,419.48721 5.7077826,414.04508 7.7478786,411.50909 26.238448,392.3851 46.797936,371.54732 126.93691,290.32359 152.79312,263.97546 156.2319,260.03134 l 3.57506,-4.10043 -1.19924,-1.62193 C 157.38299,252.65259 121.14425,215.7376 49.281082,142.94218 27.105678,120.47911 7.4187728,100.15804 5.5324046,97.784239 1.4531786,92.650963 0.47608284,89.449883 0.87659538,82.531267 1.3414057,74.501945 2.4346172,72.914296 18.773324,56.54022 36.347433,38.928069 36.468666,38.851765 46.87693,38.851765 c 6.950318,0 7.384643,0.07439 9.811856,1.680648 4.765134,3.153418 22.080631,20.20147 112.794314,111.052167 62.20713,62.30108 91.27106,91.80918 92.46118,93.87424 1.65953,2.87956 1.73572,3.34229 1.73572,10.54118 0,7.19889 -0.0762,7.66162 -1.73572,10.54118 -1.19004,2.06491 -30.25834,31.57858 -92.46118,93.87783 -94.335758,94.48197 -109.316703,109.17573 -113.51446,111.33841 -1.960604,1.0101 -3.893826,1.34799 -8.834522,1.54412 -6.163249,0.24465 -6.424656,0.20107 -10.24,-1.70732 z" style="fill:#ff80e5;stroke-width:0.60235292" />
   <path id="path52" d="M 36.894118,471.59422 C 33.613276,469.95319 30.676382,467.33382 18.770134,455.42969 1.4087841,438.07143 1.0541176,437.50967 1.0541176,427.36941 c 0,-6.09183 0.1293417,-6.84588 1.6047373,-9.35545 2.3855967,-4.05778 8.5538761,-10.4646 72.7624131,-75.57631 65.208342,-66.12559 82.924862,-84.29259 83.803552,-85.93443 0.69763,-1.30354 3.85903,1.97906 -82.57071,-85.73616 C 44.010216,137.63765 14.973969,108.09224 12.129117,105.11059 1.6758952,94.154723 0.42645883,91.668925 0.85834493,82.686984 1.2501772,74.538043 2.1041919,73.30338 19.106458,56.305398 36.69064,38.725644 36.489969,38.851765 46.87693,38.851765 c 6.917166,0 7.393898,0.08052 9.764309,1.649183 4.043386,2.675786 10.706295,9.139821 59.406731,57.633572 90.09513,89.71277 144.04639,144.20127 145.87173,147.3243 1.69099,2.89318 1.7603,3.30823 1.7603,10.54118 0,7.2244 -0.0711,7.65141 -1.75408,10.54118 -1.15472,1.98268 -17.85762,19.16836 -48.88353,50.29647 -61.45981,61.66227 -141.814974,141.71394 -148.930907,148.36841 -7.543384,7.05419 -9.06873,7.78154 -16.977365,8.09548 -6.163249,0.24465 -6.424656,0.20107 -10.24,-1.70732 z" style="fill:#ff80e5;stroke-width:0.60235292" />
   <path id="path54" d="M 36.894118,471.59422 C 33.613276,469.95319 30.676382,467.33382 18.770134,455.42969 1.4087841,438.07143 1.0541176,437.50967 1.0541176,427.36941 c 0,-6.08184 0.1309362,-6.84844 1.5946719,-9.33647 2.3990035,-4.07777 8.5110725,-10.43673 70.0549575,-72.8847 70.903263,-71.94485 85.263053,-86.69629 86.034303,-88.3808 0.52712,-1.15131 0.24754,-1.7472 -1.97829,-4.21647 -1.42569,-1.58162 -23.35423,-23.97746 -48.73008,-49.76853 C 82.653829,176.99136 49.988894,143.78666 35.440941,128.9942 20.892987,114.20174 7.4163802,100.12667 5.492926,97.716269 1.2962566,92.457151 0.54427865,90.037532 0.864507,82.823529 1.2324352,74.534961 2.0255836,73.381969 19.106458,56.305398 36.066853,39.349274 36.645125,38.960489 45.367077,38.649843 c 7.501848,-0.26719 9.959517,0.456174 14.562053,4.286038 11.622063,9.670956 199.17418,197.748109 202.01379,202.579319 1.66427,2.83151 1.73708,3.27098 1.73708,10.4848 0,7.2329 -0.0692,7.64709 -1.75635,10.51769 -1.12599,1.91577 -19.06945,20.41005 -49.99529,51.53 -53.62371,53.96028 -139.102781,139.04494 -147.881943,147.19959 -7.609435,7.06813 -9.022472,7.74107 -16.912299,8.05426 -6.163249,0.24465 -6.424656,0.20107 -10.24,-1.70732 z" style="fill:#ff80e5;stroke-width:0.60235292" />
   <path id="path56" d="m 36.592941,471.54608 c -4.927119,-2.65842 -31.1007036,-28.7461 -33.7462569,-33.63549 -1.6925485,-3.12809 -1.7925665,-3.69944 -1.7925665,-10.24 0,-6.40757 0.1195917,-7.13034 1.5946719,-9.63765 2.3851576,-4.05424 8.5564545,-10.48549 67.0486075,-69.87294 65.902753,-66.91147 86.176823,-87.66479 88.117823,-90.20079 1.41943,-1.85455 1.44654,-2.03331 0.52232,-3.44387 -1.12213,-1.71257 -12.59652,-13.45168 -87.74751,-89.77181 C 10.98655,104.21278 5.019469,97.996688 2.6487895,93.967059 1.1737093,91.45975 1.0541176,90.736979 1.0541176,84.329412 c 0,-9.876528 0.1825958,-10.16045 18.0475554,-28.062539 17.522931,-17.559351 17.293245,-17.415108 27.731268,-17.415108 5.686349,0 7.629768,0.219852 9.110586,1.030649 3.461104,1.895068 19.389075,17.398128 79.789033,77.660496 89.33689,89.13339 124.16705,124.43916 126.1927,127.91591 1.68387,2.89013 1.75474,3.31586 1.75474,10.54118 0,7.20745 -0.074,7.65532 -1.73073,10.47397 -2.78704,4.74171 -190.226762,192.78007 -201.279824,201.92266 -4.991221,4.12851 -6.437546,4.63881 -13.836505,4.88182 -6.510474,0.21384 -6.688832,0.18367 -10.24,-1.73237 z" style="fill:#ff80e5;stroke-width:0.60235292" />
   <path style="fill:#ff80e5;stroke-width:0.60235292" d="m 305.67409,482.8644 c -6.94945,-0.32341 -7.4051,-0.42698 -10.75992,-2.44594 -4.37895,-2.6353 -7.19744,-5.81329 -9.61583,-10.84235 l -1.8828,-3.9153 -0.18829,-19.41464 c -0.20427,-21.06108 0.13358,-24.19965 3.1605,-29.3611 2.0989,-3.579 6.83776,-7.99137 10.39284,-9.67681 3.01103,-1.42751 3.63739,-1.48637 17.16706,-1.61327 l 14.04201,-0.1317 -12.34824,-0.32986 c -6.79153,-0.18143 29.80141,-0.46099 81.31765,-0.62125 51.51624,-0.16025 107.62541,-0.10179 124.68706,0.12992 17.06165,0.23172 45.735,0.59458 63.71855,0.80637 l 32.69737,0.38508 2.67007,1.49233 c 4.53447,2.53436 8.54947,6.60986 10.58488,10.74436 2.24845,4.56725 2.91662,10.57101 2.91662,26.20704 0,15.51989 -0.67346,21.65214 -2.86588,26.09571 -2.1509,4.35943 -5.61267,7.92347 -10.59912,10.91224 l -3.57868,2.14499 -152.12955,-0.11406 c -83.67126,-0.0627 -155.39509,-0.26602 -159.3863,-0.45176 z" id="use172" />
</svg>