<?xml version="1.0" encoding="UTF-8" standalone="no"?>
<svg
   xmlns:dc="http://purl.org/dc/elements/1.1/"
   xmlns:cc="http://creativecommons.org/ns#"
   xmlns:rdf="http://www.w3.org/1999/02/22-rdf-syntax-ns#"
   xmlns:svg="http://www.w3.org/2000/svg"
   xmlns="http://www.w3.org/2000/svg"
   height="512"
   width="356"
   id="svg3725"
   version="1.1"
   viewBox="0 0 356 512"
   role="img"
   class="svg-inline--fa fa-angle-right fa-w-8"
   data-icon="angle-right"
   data-prefix="fas"
   focusable="false"
   aria-hidden="true">
  <metadata
     id="metadata3731">
    <rdf:RDF>
      <cc:Work
         rdf:about="">
        <dc:format>image/svg+xml</dc:format>
        <dc:type
           rdf:resource="http://purl.org/dc/dcmitype/StillImage" />
        <dc:title></dc:title>
      </cc:Work>
    </rdf:RDF>
  </metadata>
  <defs
     id="defs3729" />
  <path
     id="path3743"
     d="M -35.790458,303.91368 -108.8405,424.77865 c -5.27757,8.732 -17.84,7.60133 -24.64517,0 l -16.45964,-18.38251 c -6.79429,-7.58836 -6.80735,-19.88688 -0.029,-27.49308 L -38.136226,253.40699 -149.97363,127.91172 c -6.77831,-7.6062 -6.76525,-19.90472 0.029,-27.49307 l 16.45893,-18.382501 c 6.8059,-7.60133 17.83998,-7.60133 24.64515,0 l 70.704324,171.370841 c 6.8059,7.60052 -4.70247,20.01595 -11.50837,27.61728 z M 309.66624,415.60321 v -25.9514 c 0,-10.74955 -7.80214,-19.46354 -17.42683,-19.46354 H 71.499584 c -9.62469,0 -17.42683,8.71399 -17.42683,19.46354 v 25.9514 c 0,10.74955 7.80214,19.46355 17.42683,19.46355 H 292.23941 c 9.62469,0 17.42683,-8.714 17.42683,-19.46355 z"
     style="fill:currentColor;stroke-width:0.76737726" />
</svg>
